<svg width="600" height="600" xmlns="http://www.w3.org/2000/svg" color-interpolation-filters="sRGB"
    preserveAspectRatio="xMidYMid meet" version="1.0">
    <defs>
        <linearGradient y2="78.411%" y1="7.652%" x2="57.636%" x1="-.828%" id="xiBg">
            <!-- <stop stop-color="#f702da" offset="0%" /> -->
            <!-- <stop stop-color="#5906cd" offset="100%" /> -->
            <stop stop-color="#41B883" offset="0%" />
            <stop stop-color="#35495E" offset="100%" />
        </linearGradient>
        <linearGradient y2="89.03%" y1="2.242%" x2="50.316%" x1="43.376%" id="xi">
            <stop stop-color="#41B883" offset="0%" />
            <stop stop-color="#41B883" offset="5%" />
            <stop stop-color="#ffffff" offset="40%" />
            <stop stop-color="#ffffff" offset="100%" />
        </linearGradient>
    </defs>
    <g>
        <path stroke="null"
            d="m596.02145,121.34915l-280.9107,470.47253c-5.80014,9.71409 -20.70109,9.77097 -26.58766,0.10502l-286.47957,-470.53379c-6.41449,-10.53235 3.20257,-23.29193 15.94746,-21.15658l281.21203,47.07613a15.27003,14.30203 0 0 0 5.42405,-0.00875l275.33014,-47.00175c12.70284,-2.16817 22.36428,10.49297 16.06425,21.04719z"
            fill="url(#xiBg)" />
        <path stroke="null"
            d="m287.61917,0l0,0q21.32036,0 30.60995,5.49593q9.1373,5.49593 16.29485,23.64914q7.15755,18.06994 37.91978,59.78902q30.76223,41.63581 53.14861,59.28939q22.46252,17.57031 57.18425,32.30938l0,0q15.53341,6.41191 15.53341,12.82383q0,6.41191 -15.15268,7.99407q-15.0004,1.58216 -49.34141,1.58216l0,0q-22.69095,0 -30.99067,-3.16432q-8.37586,-3.24759 -12.79222,-9.40969q-4.41636,-6.24537 -23.30011,-40.55327l0,0l-38.90966,-71.8634q-12.18306,-22.89969 -22.61481,-36.22315q-10.43175,-13.32346 -25.356,-20.15173q-14.84811,-6.91154 -14.84811,-14.15617q0,-7.41117 22.61481,-7.41117zm-6.70068,77.02624l0,0q0,4.9963 -9.67031,12.57401q-9.59416,7.49444 -18.57917,18.06994q-8.98501,10.57549 -14.46739,19.23574l0,0q-37.69135,58.12358 -80.63665,84.27087q-42.86915,26.06401 -54.59535,26.06401l0,0q-2.96962,0 -2.96962,-2.24833l0,0q0,-5.07957 16.75171,-19.6521l0,0q43.93517,-38.97111 75.99186,-90.01661q32.05668,-51.12877 28.32562,-65.78457l0,0q-2.5889,-9.15988 -2.5889,-15.48852l0,0q0,-12.40747 9.06115,-12.40747q8.98501,0 31.2191,19.23574q22.15795,19.23574 22.15795,26.14729zm-15.07654,160.71421l0,0q30.15308,-4.57994 47.74238,-16.48778l0,0q8.37586,-5.49593 16.37099,-5.49593q7.91899,0 28.85863,16.48778q20.93964,16.48778 20.93964,22.40006q0,5.99556 -6.24382,13.98963q-6.31996,8.07735 -9.21344,16.98741q-2.96962,8.91006 -7.15755,39.38747q-4.18793,30.47741 -12.79222,48.96371q-8.60429,18.56957 -29.46778,33.64173q-20.93964,15.15543 -30.83838,15.15543q-9.82259,0 -12.10692,-13.49q-2.28432,-13.49 -7.15755,-22.48333q-4.79708,-8.91006 -15.07654,-21.48408q-10.27946,-12.57401 -10.27946,-16.07142q0,-3.41414 3.57877,-3.41414q3.57877,0 18.04616,5.74574q14.46739,5.74574 23.4524,5.74574q8.98501,0 14.23895,-8.07735q5.1778,-7.99407 11.26933,-24.73167q6.09153,-16.73759 7.99514,-35.22389q1.9036,-18.56957 1.9036,-24.73167q0,-6.24537 -3.19805,-7.99407q-3.12191,-1.91525 -11.87849,-1.91525l0,0q-38.60508,0 -74.62126,26.56364l0,0q-9.1373,6.91154 -13.32523,6.91154q-4.18793,0 -6.70068,-16.73759q-2.51276,-16.73759 -2.51276,-21.98371q0,-5.24611 3.35034,-8.91006q3.2742,-3.66395 15.07654,-7.07809q11.7262,-3.49741 22.15795,-18.81938q10.50789,-15.32198 10.50789,-30.47741l0,0q-8.83272,0.49963 -19.11218,0.49963q-10.27946,0 -18.8076,-5.74574q-8.60429,-5.74574 -8.60429,-7.99407l0,0q0,-4.16358 14.69582,-4.82975q14.61968,-0.66617 38.3005,-7.07809q23.68083,-6.41191 38.68123,-12.3242q15.15268,-5.99556 25.356,-5.99556q10.27946,0 20.93964,4.33012q10.73632,4.33012 10.73632,12.15766l0,0q0,4.08031 -4.03564,7.57772q-3.9595,3.41414 -26.95503,8.66025q-23.07168,5.24611 -44.39204,8.07735l0,0q13.32523,14.15617 13.32523,19.15247q0,5.07957 -8.14742,10.57549q-8.14742,5.49593 -24.89914,26.56364z"
            fill="url(#xi)" />
    </g>
</svg>